# xmcd
#
# Track frame offsets:
#	150
#	15765
#	64155
#
# Disc length: 1200 seconds
#
# Revision: 1
# Processed by: cddbd v1.5.1PL0 Copyright (c) Steve Scherf et al.
# Submitted via: EasyCDDAExtractor 7.0.5.1
#
DISCID=1704ae03
DTITLE=Lola's Theme - Shapesisters
DYEAR=2004
DGENRE=House
TTITLE0=Shapesisters (Radio Edit)
TTITLE1=Shapesisters (Main Mix)
TTITLE2=Shapesisters 
EXTD=
EXTT0=
EXTT1=
EXTT2=
PLAYORDER=
